<svg id="Layer_1" data-name="Layer 1" xmlns="http://www.w3.org/2000/svg" version="1.1" viewBox="0 0 243.8 61.6">
  <defs>
    <style>
      .cls-1 {
        fill: #002f5f;
      }

      .cls-1, .cls-2 {
        stroke-width: 0px;
      }

      .cls-2 {
        fill: #ca005d;
      }
    </style>
  </defs>
  <path class="cls-1" d="M46.3,36.1l-5.1-5.1,5.1-5.1c2.8-2.8,7.3-2.8,10.1,0,2.8,2.8,2.8,7.3,0,10.1-2.8,2.8-7.3,2.8-10.1,0M57.2,23.1c-4.4-4.4-11.4-4.4-15.8,0l-7.9,7.9,7.9,7.9c4.4,4.4,11.4,4.4,15.8,0s4.4-11.4,0-15.8"></path>
  <path class="cls-1" d="M37.1,16.8l-5.1,5.1-5.1-5.1c-2.8-2.8-2.8-7.3,0-10.1,2.8-2.8,7.3-2.8,10.1,0,2.8,2.8,2.8,7.3,0,10.1M24.2,5.9c-4.4,4.4-4.4,11.4,0,15.8l7.9,7.9,7.9-7.9c4.4-4.4,4.4-11.4,0-15.8s-11.4-4.4-15.8,0"></path>
  <path class="cls-1" d="M17.9,26l5.1,5.1-5.1,5.1c-2.8,2.8-7.3,2.8-10.1,0-2.8-2.8-2.8-7.3,0-10.1,2.8-2.8,7.3-2.8,10.1,0M7,38.9c4.4,4.4,11.4,4.4,15.8,0l7.9-7.9-7.9-7.9c-4.4-4.4-11.4-4.4-15.8,0s-4.4,11.4,0,15.8"></path>
  <path class="cls-2" d="M27,45.3l5.1-5.1,5.1,5.1c2.8,2.8,2.8,7.3,0,10.1-2.8,2.8-7.3,2.8-10.1,0-2.8-2.8-2.8-7.3,0-10.1M40,56.1c4.4-4.4,4.4-11.4,0-15.8l-7.9-7.9-7.9,7.9c-4.4,4.4-4.4,11.4,0,15.8s11.4,4.4,15.8,0"></path>
  <path class="cls-1" d="M83.4,32.9l-3.1-7.6-3.1,7.6h6.2ZM82.8,19.3l9.6,22.6c.2.4-.1.8-.6.8h-4.5l-2.1-5.3h-9.9l-2.1,5.3h-4.4c-.4,0-.7-.4-.6-.8l9.6-22.6h4.9Z"></path>
  <path class="cls-1" d="M93.9,31.1h0c0-6.7,5.2-12.2,12.3-12.2s6.8,1.1,9.2,3.2l-2.9,3.5c-.2.3-.6.3-.8,0-1.6-1.3-3.2-2-5.7-2-3.8,0-6.7,3.3-6.7,7.3h0c0,4.4,3,7.5,7.1,7.5s3.6-.5,4.9-1.4v-3.4h-5.2v-4.5h10.2v10.2c-2.4,2-5.7,3.7-10,3.7-7.3,0-12.3-5.1-12.3-12.1"></path>
  <path class="cls-1" d="M131.6,30.7c2.5,0,4-1.3,4-3.3h0c0-2.3-1.5-3.4-4.1-3.4h-5.1v6.7h5.2ZM121.2,19.3h10.7c3,0,5.3.8,6.8,2.4,1.3,1.3,2,3.2,2,5.4h0c0,3.9-2,6.2-5,7.3l5.1,7.5c.3.4,0,.9-.5.9h-4.9l-5-7.5h-4.1v7.5h-5.2v-23.5h0Z"></path>
  <path class="cls-1" d="M164,31.1h0c0-4.1-3-7.4-7.1-7.4s-7,3.3-7,7.3h0c0,4.1,3,7.4,7.1,7.4s7-3.3,7-7.3M144.4,31.1h0c0-6.7,5.3-12.2,12.5-12.2s12.4,5.4,12.4,12.1h0c0,6.7-5.3,12.2-12.5,12.2s-12.4-5.4-12.4-12.1"></path>
  <path class="cls-1" d="M183.2,31.1c2.6,0,4.1-1.5,4.1-3.6h0c0-2.4-1.6-3.6-4.2-3.6h-4v7.2h4.1ZM173.9,19.3h9.6c5.6,0,9,3.3,9,8.1h0c0,5.5-4.2,8.3-9.5,8.3h-3.9v7h-5.2v-23.5Z"></path>
  <path class="cls-1" d="M196,32.7v-13.4h5.2v13.3c0,3.8,1.9,5.8,5.1,5.8s5.1-1.9,5.1-5.6v-13.4h5.2v13.2c0,7.1-4,10.6-10.3,10.6s-10.2-3.5-10.2-10.4"></path>
  <path class="cls-1" d="M231.8,30.7c2.5,0,4-1.3,4-3.3h0c0-2.3-1.5-3.4-4.1-3.4h-5.1v6.7h5.2ZM221.4,19.3h10.7c3,0,5.3.8,6.8,2.4,1.3,1.3,2,3.2,2,5.4h0c0,3.9-2,6.2-5,7.3l5.1,7.5c.3.4,0,.9-.5.9h-4.9l-5-7.5h-4.1v7.5h-5.2v-23.5h0Z"></path>
</svg>